# xmcd
#
# Track frame offsets: 
#        150
#        25527
#        47425
#        82307
#        92767
#        103167
#        119162
#        135702
#        154305
#        170155
#        192032
#        217682
#
# Disc length: 3056 seconds
#
# Revision: 2
# Processed by: cddbd v1.5.2PL0 Copyright (c) Steve Scherf et al.
# Submitted via: ExactAudioCopyFreeDBPlugin 1.0
#
DISCID=a30bee0c
DTITLE=Frank Diez - Stranded On Fantasy Island (2000)
DYEAR=2000
DGENRE=Blues
TTITLE0=Single Lane Highway
TTITLE1=Ramses Calling
TTITLE2=Goin Down Fast
TTITLE3=Stranded On Fantasy Island
TTITLE4=Tiger Balm
TTITLE5=Transsylvanian Cobwebs
TTITLE6=What Are You Waiting For
TTITLE7=Paul Et Virginie
TTITLE8=Chateau D IF
TTITLE9=Cezannes Secret
TTITLE10=Theme For An Imaginary Love Song
TTITLE11=Wooden Heart
EXTD=
EXTT0=
EXTT1=
EXTT2=
EXTT3=
EXTT4=
EXTT5=
EXTT6=
EXTT7=
EXTT8=
EXTT9=
EXTT10=
EXTT11=
PLAYORDER=
